<svg width="1327" height="180" viewBox="0 0 1327 180" fill="none" xmlns="http://www.w3.org/2000/svg">
<g clip-path="url(#clip0_375_437)">
<g clip-path="url(#clip1_375_437)">
<mask id="mask0_375_437" style="mask-type:luminance" maskUnits="userSpaceOnUse" x="-23" y="-32" width="749" height="239">
<path d="M-22.5 -31.7647H725.735V206.471H-22.5V-31.7647Z" fill="white"/>
</mask>
<g mask="url(#mask0_375_437)">
<path d="M635.718 87.6381C635.028 86.8034 634.267 86.0622 633.433 85.4146C632.596 84.7687 631.804 84.2163 631.052 83.7557C630.844 83.5881 630.74 83.3693 630.74 83.0975C630.74 82.8257 630.844 82.6281 631.052 82.5028C631.763 82.0863 632.46 81.564 633.15 80.9357C633.84 80.311 634.465 79.591 635.028 78.7775C635.595 77.9622 636.041 77.0869 636.376 76.1463C636.71 75.2075 636.877 74.2157 636.877 73.171C636.877 71.4169 636.523 69.8428 635.813 68.4416C635.102 67.0457 634.142 65.844 632.932 64.8416C631.719 63.8393 630.3 63.0787 628.673 62.5563C627.045 62.034 625.333 61.7728 623.538 61.7728C621.784 61.7728 620.176 62.0657 618.715 62.6498C617.254 63.2357 616.001 63.8816 614.958 64.591C613.746 65.3851 612.662 66.3046 611.702 67.3457C611.533 67.5151 611.439 67.7022 611.42 67.9104C611.399 68.1187 611.471 68.3075 611.639 68.4751L614.833 71.4169C615.041 71.544 615.272 71.6057 615.521 71.6057C615.772 71.6057 615.96 71.544 616.086 71.4169C616.627 70.7499 617.452 70.051 618.558 69.3187C619.665 68.5899 621.094 68.2228 622.848 68.2228C623.725 68.2228 624.549 68.371 625.322 68.6622C626.093 68.9551 626.783 69.3822 627.389 69.9469C627.994 70.5081 628.474 71.1787 628.83 71.9498C629.183 72.7228 629.362 73.5681 629.362 74.4857C629.362 76.2398 628.673 77.7116 627.295 78.901C625.917 80.0922 623.85 80.6869 621.094 80.6869H617.524C616.899 80.6869 616.587 81.0204 616.587 81.6875V85.6969C616.587 86.3657 616.899 86.6993 617.524 86.6993H621.094C622.599 86.6993 623.914 86.8757 625.04 87.2322C626.167 87.5869 627.127 88.0775 627.922 88.704C628.714 89.3287 629.309 90.0381 629.706 90.8322C630.103 91.6263 630.3 92.461 630.3 93.3381C630.3 94.2981 630.103 95.1646 629.706 95.9357C629.309 96.7104 628.776 97.3757 628.109 97.9404C627.442 98.5051 626.679 98.9428 625.823 99.2551C624.967 99.5693 624.08 99.7246 623.16 99.7246C622.16 99.7246 621.179 99.5481 620.219 99.1934C619.257 98.8387 618.401 98.4416 617.651 98.004C616.899 97.5646 616.283 97.1569 615.803 96.781C615.323 96.4069 615.062 96.1757 615.02 96.0928V96.1563C614.644 95.821 614.227 95.821 613.769 96.1563L610.511 99.3487C610.386 99.5181 610.313 99.7157 610.29 99.9434C610.271 100.175 610.343 100.351 610.511 100.476C610.845 100.895 611.346 101.415 612.015 102.042C612.68 102.67 613.548 103.286 614.614 103.889C615.678 104.496 616.95 105.006 618.435 105.425C619.915 105.841 621.637 106.051 623.6 106.051C625.77 106.051 627.743 105.747 629.517 105.142C631.292 104.539 632.815 103.692 634.091 102.606C635.363 101.521 636.343 100.226 637.033 98.724C637.723 97.2204 638.067 95.5916 638.067 93.8393C638.067 92.5863 637.848 91.4498 637.409 90.4246C636.971 89.4028 636.408 88.4746 635.718 87.6381Z" fill="#884479"/>
<path d="M664.872 94.716C664.454 95.6337 663.899 96.449 663.211 97.1566C662.523 97.8678 661.697 98.4201 660.737 98.8172C659.775 99.2143 658.775 99.4119 657.732 99.4119C656.646 99.4119 655.634 99.2143 654.693 98.8172C653.752 98.4201 652.939 97.8678 652.251 97.1566C651.562 96.449 651.01 95.6337 650.592 94.716C650.174 93.7966 649.965 92.7943 649.965 91.709C649.965 90.6237 650.174 89.6107 650.592 88.6719C651.01 87.7313 651.562 86.909 652.251 86.1978C652.939 85.4884 653.752 84.936 654.693 84.539C655.634 84.1419 656.646 83.9443 657.732 83.9443C658.775 83.9443 659.775 84.1419 660.737 84.539C661.697 84.936 662.523 85.4884 663.211 86.1978C663.899 86.909 664.454 87.7313 664.872 88.6719C665.286 89.6107 665.496 90.6237 665.496 91.709C665.496 92.7943 665.286 93.7966 664.872 94.716ZM667.877 81.5001C666.666 80.3743 665.297 79.5184 663.776 78.9325C662.251 78.3501 660.695 78.0554 659.106 78.0554C658.021 78.0554 656.906 78.2125 655.759 78.5266C654.61 78.839 653.618 79.1848 652.784 79.5607C652.491 79.769 652.221 79.746 651.968 79.4972C651.719 79.2448 651.675 78.9554 651.843 78.6201C652.554 76.9084 653.544 75.3748 654.818 74.0178C656.091 72.6607 657.426 71.4907 658.828 70.5096C660.225 69.5284 661.561 68.736 662.835 68.129C664.108 67.5254 665.099 67.1178 665.809 66.9096C666.686 66.6166 667 66.1366 666.749 65.4678C666.375 64.5501 666.091 63.839 665.904 63.3396C665.717 62.8384 665.571 62.4625 665.466 62.2101C665.361 61.9613 665.297 61.8148 665.278 61.7725C665.256 61.7319 665.246 61.6913 665.246 61.649C664.995 61.0207 664.556 60.8143 663.931 61.0207C663.096 61.2713 662.001 61.6913 660.644 62.2737C659.286 62.8596 657.825 63.6625 656.26 64.6843C654.693 65.7096 653.106 66.9519 651.501 68.4113C649.893 69.8743 648.441 71.5948 647.147 73.5784C645.852 75.5619 644.798 77.8048 643.985 80.3107C643.171 82.8148 642.764 85.6137 642.764 88.7037C642.764 91.0419 643.076 93.2654 643.702 95.3725C644.327 97.4813 645.269 99.329 646.521 100.915C647.774 102.502 649.339 103.765 651.218 104.704C653.096 105.643 655.268 106.114 657.732 106.114C659.652 106.114 661.466 105.738 663.179 104.985C664.891 104.235 666.393 103.201 667.69 101.886C668.982 100.571 670.005 99.036 670.757 97.2819C671.511 95.5296 671.885 93.6713 671.885 91.709C671.885 89.4537 671.519 87.4719 670.789 85.7584C670.056 84.0466 669.088 82.6278 667.877 81.5001Z" fill="#884479"/>
<path d="M704.326 85.9777C703.657 84.2465 702.706 82.7747 701.476 81.5641C700.244 80.3518 698.741 79.4024 696.966 78.7141C695.19 78.0241 693.179 77.68 690.922 77.68H685.85C685.642 77.68 685.465 77.6183 685.319 77.493C685.172 77.3659 685.1 77.2 685.1 76.9918V69.1636C685.1 68.9553 685.172 68.7877 685.319 68.6624C685.465 68.5371 685.642 68.4753 685.85 68.4753H699.692C699.943 68.4753 700.151 68.38 700.319 68.193C700.484 68.0041 700.569 67.8065 700.569 67.5965V63.2147C700.569 63.0047 700.484 62.8053 700.319 62.62C700.151 62.4312 699.943 62.3377 699.692 62.3377H679.4C679.149 62.3377 678.929 62.4312 678.743 62.62C678.554 62.8053 678.461 63.0047 678.461 63.2147V82.1888C678.461 82.6494 678.607 83.0871 678.899 83.5036C679.192 83.9218 679.608 84.1318 680.153 84.1318H690.046C691.342 84.1318 692.499 84.3294 693.523 84.7265C694.544 85.1236 695.392 85.6547 696.059 86.3236C696.726 86.9906 697.237 87.7847 697.594 88.7024C697.947 89.6218 698.125 90.603 698.125 91.6459C698.125 92.6906 697.938 93.693 697.562 94.653C697.186 95.613 696.653 96.4494 695.965 97.1571C695.275 97.8665 694.451 98.44 693.491 98.8812C692.531 99.3188 691.488 99.5377 690.36 99.5377C688.689 99.5377 687.113 99.1724 685.631 98.44C684.149 97.7112 682.887 96.8236 681.844 95.7788C681.634 95.613 681.436 95.56 681.247 95.6236C681.059 95.6853 680.882 95.7788 680.714 95.9059L677.584 99.0365C677.291 99.3718 677.166 99.6524 677.208 99.8818C677.249 100.113 677.418 100.415 677.709 100.791C678.085 101.251 678.627 101.782 679.338 102.386C680.046 102.993 680.923 103.566 681.967 104.108C683.012 104.652 684.202 105.1 685.539 105.456C686.873 105.809 688.398 105.988 690.108 105.988C692.28 105.988 694.294 105.612 696.152 104.86C698.01 104.108 699.618 103.076 700.977 101.761C702.332 100.445 703.396 98.9218 704.169 97.1906C704.942 95.4577 705.327 93.6083 705.327 91.6459C705.327 89.6006 704.993 87.7106 704.326 85.9777Z" fill="#884479"/>
<path d="M234.812 49.5858H191.593C191.15 49.5858 190.783 49.7517 190.488 50.0817C190.195 50.4117 190.047 50.7628 190.047 51.1299V125.221C190.047 125.588 190.195 125.938 190.488 126.269C190.783 126.599 191.15 126.763 191.593 126.763H234.812C235.253 126.763 235.62 126.599 235.915 126.269C236.208 125.938 236.356 125.588 236.356 125.221V116.069C236.356 115.704 236.208 115.335 235.915 114.966C235.62 114.599 235.253 114.416 234.812 114.416H203.94C203.499 114.416 203.278 114.195 203.278 113.754V94.4605C203.278 94.0193 203.499 93.7987 203.94 93.7987H229.408C229.776 93.7987 230.127 93.6505 230.457 93.3558C230.788 93.0646 230.953 92.694 230.953 92.2546V82.8822C230.953 82.5152 230.788 82.1658 230.457 81.834C230.127 81.504 229.776 81.3381 229.408 81.3381H203.94C203.499 81.3381 203.278 81.1175 203.278 80.6781V62.5952C203.278 62.154 203.499 61.9334 203.94 61.9334H234.812C235.253 61.9334 235.62 61.7534 235.915 61.3828C236.208 61.0158 236.356 60.6487 236.356 60.2799V51.1299C236.356 50.7628 236.208 50.4117 235.915 50.0817C235.62 49.7517 235.253 49.5858 234.812 49.5858Z" fill="#884479"/>
<path d="M468.261 114.416H437.609C437.168 114.416 436.946 114.196 436.946 113.755V51.1286C436.946 50.7633 436.782 50.4121 436.45 50.0821C436.12 49.7504 435.771 49.5863 435.403 49.5863H425.26C424.819 49.5863 424.45 49.7504 424.157 50.0821C423.862 50.4121 423.716 50.7633 423.716 51.1286V125.222C423.716 125.589 423.862 125.938 424.157 126.268C424.45 126.598 424.819 126.764 425.26 126.764H468.261C468.702 126.764 469.067 126.598 469.363 126.268C469.656 125.938 469.805 125.589 469.805 125.222V116.07C469.805 115.703 469.656 115.336 469.363 114.967C469.067 114.6 468.702 114.416 468.261 114.416Z" fill="#884479"/>
<path d="M580.582 93.9007C580.582 93.9765 580.471 94.0136 580.245 94.0136H553.866C553.791 94.0136 553.713 93.9765 553.639 93.9007V93.5636C553.791 93.1101 554.108 92.323 554.599 91.1936C555.088 90.0677 555.838 88.9401 556.852 87.8124C557.867 86.6865 559.182 85.6912 560.798 84.8248C562.415 83.9636 564.388 83.5295 566.717 83.5295C568.972 83.5295 570.906 83.8859 572.523 84.5989C574.138 85.3154 575.491 86.1801 576.582 87.193C577.669 88.2059 578.535 89.2983 579.174 90.4612C579.811 91.6277 580.318 92.6601 580.695 93.5636C580.695 93.7136 580.656 93.8265 580.582 93.9007ZM585.317 80.3177C582.912 77.7995 580.076 75.883 576.806 74.5665C573.538 73.2518 570.098 72.5936 566.491 72.5936C562.884 72.5936 559.464 73.3083 556.233 74.7359C553 76.1654 550.182 78.1012 547.778 80.5418C545.371 82.9842 543.474 85.8589 542.085 89.1642C540.693 92.473 539.999 96.0059 539.999 99.763C539.999 103.522 540.712 107.034 542.14 110.302C543.568 113.572 545.484 116.429 547.891 118.869C548.639 119.632 549.446 120.329 550.281 120.996C550.314 121.022 550.349 121.047 550.383 121.074C550.985 121.554 551.608 122.005 552.25 122.434C552.481 122.588 552.723 122.729 552.959 122.875C553.431 123.17 553.907 123.459 554.399 123.726C554.491 123.777 554.576 123.837 554.669 123.887C554.888 124.003 555.121 124.091 555.344 124.201C555.698 124.377 556.037 124.569 556.401 124.732C556.565 124.806 556.734 124.857 556.898 124.926C557.061 124.995 557.226 125.053 557.389 125.117C559.748 126.039 562.274 126.648 564.977 126.922C564.998 126.924 565.019 126.929 565.041 126.931C565.095 126.938 565.152 126.932 565.206 126.938C565.709 126.977 566.207 127.033 566.717 127.044C567.005 127.051 567.275 127.035 567.559 127.037C567.779 127.037 567.995 127.033 568.214 127.029C571.014 126.955 573.884 126.445 576.822 125.466C577.572 125.166 577.836 124.716 577.611 124.112L574.566 115.771C574.514 115.684 574.446 115.622 574.39 115.541C574.049 115.059 573.665 114.652 573.215 114.361C572.687 114.022 572.05 113.967 571.298 114.193C568.215 115.095 563.925 114.964 561.259 113.798C559.136 112.871 557.02 111.583 555.409 109.942C554.661 109.031 554.085 108.154 553.695 107.316C553.206 106.264 552.924 105.551 552.852 105.174V105.062C552.924 104.987 553 104.948 553.078 104.948H573.255C578.516 104.948 584.376 104.911 590.842 104.835C591.591 104.835 592.083 104.685 592.309 104.383C592.533 104.085 592.644 103.559 592.644 102.807C592.796 97.8465 592.212 93.4895 590.897 89.7289C589.582 85.9736 587.721 82.8342 585.317 80.3177Z" fill="#884479"/>
<path d="M297.232 72.7072H289.114C288.362 72.7072 287.706 73.0072 287.141 73.6089C286.576 74.2125 286.297 74.8883 286.297 75.6383C286.297 76.4642 286.052 76.953 285.563 77.1048C285.073 77.2548 284.566 77.0289 284.042 76.4254C281.035 74.3236 277.765 73.083 274.234 72.7072C270.699 72.3313 267.244 72.6507 263.863 73.6654C260.48 74.6801 257.362 76.3142 254.505 78.5695C251.647 80.8248 249.394 83.5283 247.742 86.6854C245.863 90.3701 244.811 94.053 244.585 97.7325C244.361 101.417 244.792 104.911 245.882 108.218C246.971 111.525 248.662 114.531 250.954 117.236C253.245 119.943 255.952 122.122 259.072 123.774C262.19 125.428 265.647 126.441 269.441 126.82C273.237 127.192 277.165 126.705 281.222 125.354C281.974 125.054 282.237 124.604 282.011 124L278.967 115.657C278.591 115.058 278.141 114.587 277.615 114.25C277.089 113.91 276.45 113.855 275.699 114.081C272.616 114.982 269.741 114.852 267.075 113.685C264.406 112.521 262.246 110.793 260.593 108.501C258.939 106.208 257.905 103.616 257.492 100.72C257.079 97.8277 257.625 95.103 259.126 92.5477C260.102 90.8201 261.362 89.3748 262.905 88.2066C264.443 87.0436 266.116 86.1983 267.922 85.6725C269.725 85.1466 271.601 84.9789 273.558 85.1642C275.512 85.353 277.391 85.9354 279.195 86.9113C281.674 88.263 283.592 90.0877 284.944 92.3783C286.297 94.6725 286.973 97.5472 286.973 101.002V102.13C286.973 102.808 286.954 103.69 286.917 104.779C286.876 105.87 286.86 107.073 286.86 108.386V112.39V123.213C286.86 124.039 287.141 124.715 287.706 125.241C288.27 125.767 288.964 126.03 289.79 126.03H297.232C298.057 126.03 298.753 125.767 299.316 125.241C299.88 124.715 300.163 124.039 300.163 123.213V75.6383C300.163 74.8883 299.88 74.2125 299.316 73.6089C298.753 73.0072 298.057 72.7072 297.232 72.7072Z" fill="#884479"/>
<path d="M347.565 97.6207C345.573 96.4189 343.226 95.4801 340.52 94.8025C337.815 94.1266 334.882 93.5266 331.727 92.999C328.418 92.3231 326.221 91.7213 325.13 91.1937C324.042 90.6695 323.496 89.7678 323.496 88.4901C323.496 88.0384 323.57 87.5319 323.722 86.9672C323.872 86.4042 324.19 85.896 324.68 85.446C325.167 84.9942 325.865 84.6572 326.766 84.4313C327.668 84.2054 328.87 84.1313 330.373 84.2054C332.101 84.2813 333.716 84.6007 335.221 85.1637C336.723 85.7266 337.776 86.459 338.376 87.3625C338.752 87.7384 339.147 88.0384 339.562 88.2642C339.973 88.4901 340.406 88.6031 340.857 88.6031H348.973C349.425 88.6031 349.877 88.4901 350.327 88.2642C350.779 88.0384 351.079 87.7384 351.229 87.3625C351.755 86.6866 351.905 85.896 351.68 84.9942C350.027 81.0872 347.359 77.9884 343.676 75.6942C339.993 73.4019 335.56 72.2548 330.373 72.2548C327.066 72.2548 324.153 72.7472 321.638 73.7213C319.118 74.7007 316.995 75.9748 315.267 77.5542C313.538 79.1319 312.223 80.9195 311.322 82.9101C310.422 84.9007 309.968 86.9125 309.968 88.9401C309.968 91.7972 310.646 94.146 311.997 95.9866C313.351 97.8289 315.042 99.3113 317.071 100.439C319.1 101.567 321.278 102.412 323.609 102.977C325.939 103.54 328.044 103.974 329.922 104.274C332.101 104.648 333.906 105.006 335.334 105.341C336.76 105.682 337.87 106.075 338.659 106.527C339.447 106.979 339.993 107.485 340.295 108.048C340.593 108.613 340.745 109.271 340.745 110.021C340.745 111.451 339.936 112.541 338.322 113.291C336.703 114.043 334.582 114.417 331.953 114.417C330.297 114.417 328.607 114.08 326.877 113.404C325.148 112.727 323.648 111.451 322.37 109.57C321.767 108.894 321.017 108.555 320.115 108.555H312.112C311.133 108.555 310.422 108.894 309.968 109.57C309.292 110.399 309.181 111.223 309.631 112.051C310.381 114.306 311.452 116.335 312.845 118.137C314.233 119.942 315.887 121.465 317.803 122.704C319.722 123.945 321.823 124.885 324.117 125.522C326.408 126.16 328.796 126.481 331.275 126.481C334.658 126.481 337.739 126.047 340.52 125.184C343.3 124.321 345.687 123.137 347.676 121.633C349.669 120.13 351.209 118.308 352.302 116.164C353.389 114.024 353.934 111.712 353.934 109.234C353.934 106.453 353.371 104.122 352.243 102.242C351.116 100.367 349.556 98.8242 347.565 97.6207Z" fill="#884479"/>
<path d="M489.272 72.7071H481.493C480.818 72.7071 480.214 73.0071 479.69 73.6088C479.162 74.2124 478.901 74.9253 478.901 75.7512V123.324C478.901 124.076 479.162 124.715 479.69 125.241C480.214 125.766 480.818 126.029 481.493 126.029H489.272C490.098 126.029 490.776 125.766 491.302 125.241C491.828 124.715 492.091 124.076 492.091 123.324V75.7512C492.091 74.9253 491.828 74.2124 491.302 73.6088C490.776 73.0071 490.098 72.7071 489.272 72.7071Z" fill="#884479"/>
<path d="M489.272 53.3169H481.493C480.818 53.3169 480.214 53.5816 479.69 54.1075C479.162 54.6316 478.901 55.3093 478.901 56.1351V64.0269C478.901 64.7028 479.162 65.3046 479.69 65.8304C480.214 66.3581 480.818 66.6193 481.493 66.6193H489.272C490.098 66.6193 490.776 66.3581 491.302 65.8304C491.828 65.3046 492.091 64.7028 492.091 64.0269V56.1351C492.091 54.2575 491.148 53.3169 489.272 53.3169Z" fill="#884479"/>
<path d="M409.173 72.7071H401.17C400.342 72.7071 399.686 73.0071 399.197 73.6089C398.707 74.2124 398.465 74.9254 398.465 75.7513V102.017C398.465 105.398 397.507 108.144 395.59 110.246C393.672 112.351 391.249 113.405 388.318 113.405C386.438 113.405 384.898 113.066 383.696 112.39C382.492 111.712 381.534 110.887 380.821 109.909C380.107 108.933 379.598 107.899 379.298 106.808C378.997 105.721 378.848 104.724 378.848 103.822V75.7513C378.848 74.9254 378.566 74.2124 378.001 73.6089C377.44 73.0071 376.819 72.7071 376.143 72.7071H368.475C367.724 72.7071 367.067 73.0071 366.504 73.6089C365.941 74.2124 365.659 74.9254 365.659 75.7513V103.258C365.659 106.639 366.109 109.739 367.011 112.558C367.914 115.376 369.21 117.783 370.9 119.774C372.591 121.764 374.638 123.307 377.043 124.395C379.448 125.484 382.154 126.029 385.161 126.029C387.114 126.029 389.202 125.618 391.418 124.789C393.635 123.963 395.421 122.687 396.774 120.958C397.148 120.506 397.563 120.28 398.013 120.28C398.465 120.28 398.765 120.506 398.915 120.958V130.877C398.915 131.567 398.846 132.255 398.774 132.944C398.677 133.452 398.546 133.958 398.378 134.461C397.65 136.641 396.315 138.728 394.814 140.491C392.929 142.709 389.131 144.709 385.965 145.251C385.35 145.351 384.915 145.618 384.584 145.978C384.499 146.069 384.382 146.133 384.317 146.242C384.04 146.701 383.872 147.236 383.777 147.818C383.763 147.915 383.731 148.002 383.719 148.102L384.644 156.935C384.67 157.217 384.783 157.418 384.956 157.565C385.175 157.75 385.496 157.838 385.946 157.805C390.082 157.332 393.822 156.379 396.04 155.452C399.46 154.025 402.335 152.163 404.664 149.874C406.994 147.58 408.78 144.951 410.018 141.981C411.261 139.012 411.917 135.951 411.993 132.792V75.7513C411.993 74.9254 411.728 74.2124 411.202 73.6089C410.677 73.0071 410.001 72.7071 409.173 72.7071Z" fill="#884479"/>
<path d="M534.816 73.0449H521.738C521.711 72.2508 521.738 71.4796 521.791 70.719C521.886 70.2479 522.003 69.7749 522.158 69.309C522.888 67.1279 524.223 65.042 525.724 63.279C527.609 61.0608 531.407 59.0614 534.573 58.5196C535.188 58.419 535.623 58.1526 535.954 57.7926C536.037 57.7008 536.154 57.6373 536.221 57.5279C536.228 57.5155 536.231 57.5014 536.238 57.4908C536.503 57.039 536.667 56.5202 536.759 55.952C536.775 55.8549 536.807 55.7684 536.817 55.6679L535.894 46.8355C535.877 46.6555 535.813 46.5179 535.734 46.3961C535.688 46.3273 535.644 46.2567 535.582 46.2055C535.363 46.0202 535.04 45.932 534.592 45.9655C530.455 46.4384 526.716 47.3914 524.496 48.3161C521.078 49.7455 518.203 51.6055 515.872 53.8961C513.544 56.1902 511.758 58.8196 510.518 61.7879C509.277 64.7579 508.621 67.8196 508.545 70.9767V73.0449H503.815C503.062 73.0449 502.423 73.2902 501.897 73.7773C501.371 74.2661 501.108 74.9243 501.108 75.7502V82.1755C501.108 82.929 501.371 83.5679 501.897 84.092C502.423 84.6196 503.062 84.8826 503.815 84.8826H508.548V123.325C508.548 124.153 508.811 124.809 509.337 125.296C509.863 125.787 510.539 126.028 511.368 126.028H519.033C519.783 126.028 520.423 125.787 520.951 125.296C521.473 124.809 521.738 124.153 521.738 123.325V84.8826H534.816C535.642 84.8826 536.32 84.6196 536.845 84.092C537.371 83.5679 537.636 82.929 537.636 82.1755V75.7502C537.636 74.9243 537.371 74.2661 536.845 73.7773C536.32 73.2902 535.642 73.0449 534.816 73.0449Z" fill="#884479"/>
<path d="M101.57 61.3761C101.57 61.7432 101.423 62.112 101.129 62.4791C100.834 62.8479 100.467 63.0296 100.026 63.0296H69.1556C68.7145 63.0296 68.4939 63.2502 68.4939 63.6914V81.7726C68.4939 82.2138 68.7145 82.4344 69.1556 82.4344H94.6221C94.9909 82.4344 95.3421 82.6002 95.6721 82.9302C96.0039 83.2602 96.168 83.6114 96.168 83.9785V93.3491C96.168 93.7902 96.0039 94.1608 95.6721 94.452C95.3421 94.7467 94.9909 94.8949 94.6221 94.8949H69.1556C68.7145 94.8949 68.4939 95.1155 68.4939 95.5549V114.85C68.4939 115.291 68.7145 115.512 69.1556 115.512H100.026C100.467 115.512 100.834 115.696 101.129 116.063C101.423 116.431 101.57 116.798 101.57 117.166V126.317C101.57 126.684 101.423 127.034 101.129 127.364C100.834 127.696 100.467 127.86 100.026 127.86H56.808C56.3651 127.86 55.9962 127.696 55.7033 127.364C55.4104 127.034 55.2621 126.684 55.2621 126.317V52.2244C55.2621 51.8573 55.4104 51.5079 55.7033 51.1779C55.9962 50.8461 56.3651 50.6803 56.808 50.6803H100.026C100.467 50.6803 100.834 50.8461 101.129 51.1779C101.423 51.5079 101.57 51.8573 101.57 52.2244V61.3761ZM76.9451 -0.000335693L-0.327881 44.4155V135.104L76.9451 179.257L154.304 134.994V44.3661L76.9451 -0.000335693Z" fill="#884479"/>
</g>
</g>
<path d="M784.75 122.878C779.028 125.566 772.497 126.91 765.155 126.91C759.916 126.91 755.16 125.997 750.886 124.17C746.612 122.309 742.958 119.741 739.925 116.467C736.927 113.192 734.6 109.298 732.946 104.782C731.326 100.267 730.516 95.3385 730.516 89.9961C730.516 84.378 731.378 79.1563 733.101 74.3309C734.859 69.4711 737.358 65.2661 740.597 61.716C743.837 58.1315 747.749 55.3224 752.333 53.2889C756.952 51.2553 762.122 50.2385 767.844 50.2385C774.151 50.2385 779.786 51.2036 784.75 53.1338V60.4752C779.442 57.8213 773.772 56.4943 767.74 56.4943C762.949 56.4943 758.693 57.3215 754.97 58.9759C751.248 60.6303 748.111 62.9396 745.561 65.9038C743.01 68.8334 741.063 72.3146 739.719 76.3472C738.374 80.3454 737.702 84.7227 737.702 89.4791C737.702 93.753 738.305 97.7856 739.512 101.577C740.718 105.334 742.493 108.625 744.837 111.452C747.215 114.278 750.162 116.518 753.678 118.173C757.193 119.827 761.278 120.654 765.931 120.654C773.065 120.654 779.338 119.155 784.75 116.157V122.878ZM820.088 126.858C816.159 126.858 812.626 126.204 809.489 124.894C806.387 123.584 803.733 121.74 801.527 119.362C799.322 116.949 797.633 114.071 796.461 110.728C795.289 107.385 794.703 103.679 794.703 99.6124C794.703 95.2006 795.323 91.2542 796.564 87.773C797.805 84.2919 799.563 81.3449 801.838 78.9322C804.147 76.4851 806.921 74.6239 810.161 73.3486C813.401 72.0733 817.02 71.4357 821.018 71.4357C824.844 71.4357 828.291 72.0733 831.359 73.3486C834.426 74.5894 837.028 76.3989 839.165 78.7771C841.302 81.1554 842.939 84.0506 844.077 87.4628C845.214 90.875 845.783 94.7526 845.783 99.0954C845.783 103.231 845.18 107.006 843.973 110.418C842.802 113.796 841.113 116.708 838.907 119.155C836.701 121.602 834.012 123.498 830.842 124.842C827.671 126.186 824.086 126.858 820.088 126.858ZM820.605 77.1744C817.71 77.1744 815.09 77.6742 812.746 78.6737C810.403 79.6733 808.386 81.1381 806.697 83.0683C805.043 84.964 803.768 87.3077 802.872 90.0995C801.975 92.8569 801.527 95.9934 801.527 99.509C801.527 102.818 801.975 105.799 802.872 108.453C803.768 111.107 805.026 113.382 806.646 115.278C808.3 117.173 810.299 118.638 812.643 119.672C814.987 120.672 817.606 121.171 820.501 121.171C823.466 121.171 826.085 120.689 828.36 119.724C830.635 118.724 832.565 117.294 834.15 115.433C835.736 113.537 836.925 111.228 837.718 108.505C838.545 105.782 838.958 102.68 838.958 99.1988C838.958 92.0641 837.373 86.6184 834.202 82.8615C831.031 79.0701 826.499 77.1744 820.605 77.1744ZM858.063 125.618V47.2399H864.68V125.618H858.063ZM880.683 125.618V47.2399H887.3V125.618H880.683ZM933.806 125.618V116.208H933.599C931.876 119.586 929.515 122.205 926.516 124.067C923.552 125.928 920.191 126.858 916.435 126.858C913.884 126.858 911.575 126.497 909.507 125.773C907.473 125.049 905.733 124.032 904.285 122.722C902.872 121.378 901.769 119.776 900.976 117.914C900.218 116.053 899.839 114.002 899.839 111.762C899.839 106.971 901.321 103.162 904.285 100.336C907.249 97.4754 911.73 95.6142 917.727 94.7526L933.806 92.426C933.806 82.2583 929.859 77.1744 921.967 77.1744C915.797 77.1744 910.075 79.432 904.802 83.9472V76.7091C905.905 75.9164 907.146 75.2098 908.524 74.5894C909.938 73.9345 911.42 73.3831 912.971 72.935C914.522 72.4525 916.107 72.0906 917.727 71.8493C919.381 71.5736 920.984 71.4357 922.535 71.4357C928.429 71.4357 932.875 73.0901 935.874 76.3989C938.907 79.7078 940.424 84.6365 940.424 91.1852V125.618H933.806ZM920.157 99.9226C917.779 100.267 915.745 100.698 914.056 101.215C912.367 101.732 910.972 102.439 909.869 103.335C908.766 104.196 907.956 105.282 907.439 106.592C906.922 107.867 906.663 109.453 906.663 111.348C906.663 112.762 906.904 114.071 907.387 115.278C907.904 116.484 908.628 117.535 909.558 118.431C910.524 119.293 911.678 119.965 913.022 120.448C914.401 120.93 915.952 121.171 917.675 121.171C920.019 121.171 922.173 120.723 924.138 119.827C926.103 118.931 927.791 117.69 929.205 116.105C930.652 114.519 931.772 112.624 932.565 110.418C933.392 108.212 933.806 105.816 933.806 103.231V98.0097L920.157 99.9226ZM961.906 117.087V125.618H955.288V47.2399H961.906V82.8098H962.113C964.077 79.1218 966.697 76.3128 969.971 74.3826C973.28 72.418 977.003 71.4357 981.139 71.4357C984.516 71.4357 987.532 72.0561 990.186 73.2969C992.875 74.5032 995.132 76.2438 996.959 78.5186C998.82 80.7935 1000.23 83.5336 1001.2 86.739C1002.2 89.9444 1002.7 93.5117 1002.7 97.441C1002.7 101.818 1002.13 105.816 1000.99 109.435C999.889 113.02 998.303 116.105 996.235 118.69C994.167 121.275 991.651 123.291 988.687 124.739C985.757 126.152 982.466 126.858 978.812 126.858C971.333 126.858 965.766 123.601 962.113 117.087H961.906ZM961.906 103.593C961.906 106.006 962.302 108.281 963.095 110.418C963.922 112.52 965.06 114.381 966.507 116.001C967.955 117.587 969.696 118.845 971.729 119.776C973.797 120.706 976.072 121.171 978.554 121.171C981.208 121.171 983.603 120.62 985.74 119.517C987.877 118.38 989.686 116.777 991.168 114.709C992.685 112.641 993.84 110.142 994.632 107.212C995.46 104.283 995.873 101.008 995.873 97.3893C995.873 94.2873 995.494 91.4954 994.736 89.0138C993.978 86.4977 992.892 84.3608 991.479 82.603C990.1 80.8452 988.411 79.501 986.412 78.5703C984.447 77.6397 982.242 77.1744 979.794 77.1744C977.037 77.1744 974.555 77.6914 972.35 78.7254C970.144 79.725 968.265 81.1037 966.714 82.8615C965.163 84.6193 963.974 86.6873 963.147 89.0655C962.32 91.4093 961.906 93.9081 961.906 96.5621V103.593ZM1036.69 126.858C1032.76 126.858 1029.23 126.204 1026.09 124.894C1022.99 123.584 1020.34 121.74 1018.13 119.362C1015.93 116.949 1014.24 114.071 1013.06 110.728C1011.89 107.385 1011.31 103.679 1011.31 99.6124C1011.31 95.2006 1011.93 91.2542 1013.17 87.773C1014.41 84.2919 1016.17 81.3449 1018.44 78.9322C1020.75 76.4851 1023.53 74.6239 1026.77 73.3486C1030.01 72.0733 1033.62 71.4357 1037.62 71.4357C1041.45 71.4357 1044.89 72.0733 1047.96 73.3486C1051.03 74.5894 1053.63 76.3989 1055.77 78.7771C1057.91 81.1554 1059.54 84.0506 1060.68 87.4628C1061.82 90.875 1062.39 94.7526 1062.39 99.0954C1062.39 103.231 1061.78 107.006 1060.58 110.418C1059.41 113.796 1057.72 116.708 1055.51 119.155C1053.3 121.602 1050.62 123.498 1047.45 124.842C1044.27 126.186 1040.69 126.858 1036.69 126.858ZM1037.21 77.1744C1034.31 77.1744 1031.69 77.6742 1029.35 78.6737C1027.01 79.6733 1024.99 81.1381 1023.3 83.0683C1021.65 84.964 1020.37 87.3077 1019.48 90.0995C1018.58 92.8569 1018.13 95.9934 1018.13 99.509C1018.13 102.818 1018.58 105.799 1019.48 108.453C1020.37 111.107 1021.63 113.382 1023.25 115.278C1024.9 117.173 1026.9 118.638 1029.25 119.672C1031.59 120.672 1034.21 121.171 1037.11 121.171C1040.07 121.171 1042.69 120.689 1044.96 119.724C1047.24 118.724 1049.17 117.294 1050.75 115.433C1052.34 113.537 1053.53 111.228 1054.32 108.505C1055.15 105.782 1055.56 102.68 1055.56 99.1988C1055.56 92.0641 1053.98 86.6184 1050.81 82.8615C1047.63 79.0701 1043.1 77.1744 1037.21 77.1744ZM1100.93 79.4493C1099.38 78.3118 1097.38 77.7431 1094.93 77.7431C1093.18 77.7431 1091.62 78.0878 1090.28 78.7771C1088.94 79.432 1087.75 80.3282 1086.71 81.4656C1085.71 82.603 1084.85 83.9299 1084.13 85.4465C1083.44 86.9286 1082.87 88.4796 1082.42 90.0995C1082.01 91.7195 1081.7 93.3566 1081.49 95.0111C1081.32 96.6655 1081.23 98.2337 1081.23 99.7158V125.618H1074.67V72.6765H1081.23V83.9989H1081.44C1082.06 82.0687 1082.84 80.3454 1083.77 78.8288C1084.73 77.2778 1085.83 75.9853 1087.07 74.9513C1088.32 73.8828 1089.66 73.0729 1091.11 72.5214C1092.59 71.9699 1094.14 71.6942 1095.76 71.6942C1096.83 71.6942 1097.78 71.7631 1098.6 71.901C1099.47 72.0389 1100.24 72.2457 1100.93 72.5214V79.4493ZM1139.99 125.618V116.208H1139.78C1138.06 119.586 1135.7 122.205 1132.7 124.067C1129.74 125.928 1126.38 126.858 1122.62 126.858C1120.07 126.858 1117.76 126.497 1115.69 125.773C1113.66 125.049 1111.92 124.032 1110.47 122.722C1109.06 121.378 1107.95 119.776 1107.16 117.914C1106.4 116.053 1106.02 114.002 1106.02 111.762C1106.02 106.971 1107.51 103.162 1110.47 100.336C1113.43 97.4754 1117.92 95.6142 1123.91 94.7526L1139.99 92.426C1139.99 82.2583 1136.04 77.1744 1128.15 77.1744C1121.98 77.1744 1116.26 79.432 1110.99 83.9472V76.7091C1112.09 75.9164 1113.33 75.2098 1114.71 74.5894C1116.12 73.9345 1117.6 73.3831 1119.16 72.935C1120.71 72.4525 1122.29 72.0906 1123.91 71.8493C1125.57 71.5736 1127.17 71.4357 1128.72 71.4357C1134.61 71.4357 1139.06 73.0901 1142.06 76.3989C1145.09 79.7078 1146.61 84.6365 1146.61 91.1852V125.618H1139.99ZM1126.34 99.9226C1123.96 100.267 1121.93 100.698 1120.24 101.215C1118.55 101.732 1117.16 102.439 1116.05 103.335C1114.95 104.196 1114.14 105.282 1113.62 106.592C1113.11 107.867 1112.85 109.453 1112.85 111.348C1112.85 112.762 1113.09 114.071 1113.57 115.278C1114.09 116.484 1114.81 117.535 1115.74 118.431C1116.71 119.293 1117.86 119.965 1119.21 120.448C1120.59 120.93 1122.14 121.171 1123.86 121.171C1126.2 121.171 1128.36 120.723 1130.32 119.827C1132.29 118.931 1133.98 117.69 1135.39 116.105C1136.84 114.519 1137.96 112.624 1138.75 110.418C1139.58 108.212 1139.99 105.816 1139.99 103.231V98.0097L1126.34 99.9226ZM1184.22 124.997C1181.95 126.135 1179.47 126.703 1176.78 126.703C1168.23 126.703 1163.96 121.775 1163.96 111.917V78.4669H1154.65V72.6765H1163.96V59.3378L1170.57 57.1664V72.6765H1184.22V78.4669H1170.57V110.883C1170.57 114.468 1171.16 117.053 1172.33 118.638C1173.5 120.224 1175.48 121.016 1178.28 121.016C1180.34 121.016 1182.33 120.396 1184.22 119.155V124.997ZM1197.38 59.2861C1196.11 59.2861 1195 58.838 1194.07 57.9419C1193.14 57.0458 1192.68 55.9084 1192.68 54.5297C1192.68 53.1855 1193.14 52.0825 1194.07 51.2209C1195 50.3247 1196.11 49.8766 1197.38 49.8766C1198.04 49.8766 1198.66 49.9973 1199.24 50.2385C1199.83 50.4453 1200.33 50.7555 1200.74 51.1692C1201.19 51.5828 1201.53 52.0825 1201.78 52.6685C1202.05 53.2199 1202.19 53.8403 1202.19 54.5297C1202.19 55.1845 1202.07 55.8049 1201.83 56.3909C1201.59 56.9768 1201.24 57.4938 1200.79 57.9419C1200.34 58.3555 1199.83 58.6829 1199.24 58.9242C1198.69 59.1655 1198.07 59.2861 1197.38 59.2861ZM1194.12 125.618V72.6765H1200.74V125.618H1194.12ZM1238.41 126.858C1234.48 126.858 1230.94 126.204 1227.81 124.894C1224.71 123.584 1222.05 121.74 1219.85 119.362C1217.64 116.949 1215.95 114.071 1214.78 110.728C1213.61 107.385 1213.02 103.679 1213.02 99.6124C1213.02 95.2006 1213.64 91.2542 1214.88 87.773C1216.12 84.2919 1217.88 81.3449 1220.16 78.9322C1222.46 76.4851 1225.24 74.6239 1228.48 73.3486C1231.72 72.0733 1235.34 71.4357 1239.34 71.4357C1243.16 71.4357 1246.61 72.0733 1249.68 73.3486C1252.74 74.5894 1255.35 76.3989 1257.48 78.7771C1259.62 81.1554 1261.26 84.0506 1262.39 87.4628C1263.53 90.875 1264.1 94.7526 1264.1 99.0954C1264.1 103.231 1263.5 107.006 1262.29 110.418C1261.12 113.796 1259.43 116.708 1257.22 119.155C1255.02 121.602 1252.33 123.498 1249.16 124.842C1245.99 126.186 1242.4 126.858 1238.41 126.858ZM1238.92 77.1744C1236.03 77.1744 1233.41 77.6742 1231.06 78.6737C1228.72 79.6733 1226.7 81.1381 1225.02 83.0683C1223.36 84.964 1222.09 87.3077 1221.19 90.0995C1220.29 92.8569 1219.85 95.9934 1219.85 99.509C1219.85 102.818 1220.29 105.799 1221.19 108.453C1222.09 111.107 1223.34 113.382 1224.96 115.278C1226.62 117.173 1228.62 118.638 1230.96 119.672C1233.3 120.672 1235.92 121.171 1238.82 121.171C1241.78 121.171 1244.4 120.689 1246.68 119.724C1248.95 118.724 1250.88 117.294 1252.47 115.433C1254.05 113.537 1255.24 111.228 1256.04 108.505C1256.86 105.782 1257.28 102.68 1257.28 99.1988C1257.28 92.0641 1255.69 86.6184 1252.52 82.8615C1249.35 79.0701 1244.82 77.1744 1238.92 77.1744ZM1312.11 125.618V95.1145C1312.11 83.1544 1307.76 77.1744 1299.08 77.1744C1296.77 77.1744 1294.63 77.6397 1292.67 78.5703C1290.7 79.4665 1289 80.7245 1287.55 82.3445C1286.13 83.9644 1285.01 85.8946 1284.19 88.1349C1283.39 90.3408 1283 92.7362 1283 95.3213V125.618H1276.38V72.6765H1283V81.8792H1283.21C1287.13 74.9169 1293.05 71.4357 1300.94 71.4357C1306.73 71.4357 1311.14 73.3141 1314.17 77.071C1317.21 80.8279 1318.72 86.2565 1318.72 93.3566V125.618H1312.11Z" fill="#884479"/>
</g>
<defs>
<clipPath id="clip0_375_437">
<rect width="1326.18" height="180" fill="white"/>
</clipPath>
<clipPath id="clip1_375_437">
<rect width="748.235" height="238.235" fill="white" transform="translate(-22.5 -31.7647)"/>
</clipPath>
</defs>
</svg>
