<?xml version="1.0" encoding="UTF-8" standalone="no"?>
<!DOCTYPE svg PUBLIC "-//W3C//DTD SVG 1.1//EN" "http://www.w3.org/Graphics/SVG/1.1/DTD/svg11.dtd">
<svg width="100%" height="100%" viewBox="0 0 2847 689" version="1.1" xmlns="http://www.w3.org/2000/svg" xmlns:xlink="http://www.w3.org/1999/xlink" xml:space="preserve" xmlns:serif="http://www.serif.com/" style="fill-rule:evenodd;clip-rule:evenodd;stroke-linejoin:round;stroke-miterlimit:2;">
    <g transform="matrix(1.3272,0,0,1.3272,-539.464,-1397.47)">
        <g>
            <g>
                <g>
                    <g transform="matrix(0.215383,0,0,0.215383,1207.64,879.347)">
                        <path d="M1978.73,3032.35L1191.49,3032.35L1022.7,3148.39L1022.7,3215.01L1810.43,3215.01L1978.73,3098.97L1978.73,3032.35Z" style="fill:rgb(53,53,53);"/>
                    </g>
                    <g transform="matrix(0.215383,0,0,0.215383,1536.51,879.347)">
                        <path d="M4454.94,3032.35L1191.49,3032.35L1022.7,3148.39L1022.7,3215.01L4286.65,3215.01L4454.94,3098.97L4454.94,3032.35Z" style="fill:rgb(53,53,53);"/>
                    </g>
                </g>
                <g>
                    <g transform="matrix(2.36673,0,0,2.36673,-460.738,-4339.28)">
                        <path d="M547.297,2343.33C533.745,2343.33 522.689,2354.38 522.689,2367.93L522.689,2422.14C522.689,2435.7 533.745,2446.75 547.297,2446.75L603.112,2446.75C616.664,2446.75 627.72,2435.7 627.72,2422.14L627.72,2367.93C627.72,2354.38 616.664,2343.33 603.112,2343.33L547.297,2343.33ZM547.297,2423.39C546.584,2423.39 546.049,2422.86 546.049,2422.14L546.049,2367.93C546.049,2367.22 546.584,2366.69 547.297,2366.69L603.112,2366.69C603.825,2366.69 604.36,2367.22 604.36,2367.93L604.36,2422.14C604.36,2422.86 603.825,2423.39 603.112,2423.39L547.297,2423.39Z" style="fill:rgb(53,53,53);fill-rule:nonzero;"/>
                    </g>
                    <g transform="matrix(2.36673,0,0,2.36673,-460.738,-4339.28)">
                        <path d="M753.259,2367.93C753.259,2354.56 742.203,2343.33 728.651,2343.33L648.227,2343.33L648.227,2446.75L671.588,2446.75L671.588,2413.41L693.165,2413.41L729.721,2446.75L755.042,2446.75L755.042,2440.51L724.549,2413.41L728.651,2413.41C742.203,2413.41 753.259,2402.17 753.259,2388.8L753.259,2367.93ZM672.836,2389.87C672.123,2389.87 671.588,2389.51 671.588,2388.8L671.588,2367.93C671.588,2367.22 672.123,2366.69 672.836,2366.69L728.651,2366.69C729.364,2366.69 729.899,2367.22 729.899,2367.93L729.899,2388.8C729.899,2389.51 729.364,2389.87 728.651,2389.87L672.836,2389.87Z" style="fill:rgb(53,53,53);fill-rule:nonzero;"/>
                    </g>
                    <g transform="matrix(2.36673,0,0,2.36673,-890.642,-4339.28)">
                        <path d="M677.14,2319.14L643.769,2404.67L614.881,2343.33L592.056,2343.33L572.813,2404.67L572.813,2294.97L548.059,2294.97L548.059,2446.75L573.689,2446.75L603.647,2379.17L634.853,2446.75L653.042,2446.75L702.105,2319.14L677.14,2319.14Z" style="fill:rgb(53,53,53);fill-rule:nonzero;"/>
                    </g>
                </g>
            </g>
            <g>
                <g>
                    <g transform="matrix(2.36673,0,0,2.36673,-460.738,-4339.28)">
                        <path d="M872.923,2343.33L836.01,2383.27L798.018,2383.27L798.018,2294.97L774.658,2294.97L774.658,2497.57L798.018,2497.57L798.018,2406.81L836.01,2406.81L911.813,2497.57L936.956,2497.57L936.956,2491.51L856.696,2395.04L898.066,2349.39L898.066,2343.33L872.923,2343.33Z" style="fill:rgb(18,178,205);fill-rule:nonzero;"/>
                    </g>
                    <g transform="matrix(2.36673,0,0,2.36673,-442.728,-4339.28)">
                        <path d="M930.565,2343.33C917.013,2343.33 905.957,2354.38 905.957,2367.93L905.957,2422.14C905.957,2435.7 917.013,2446.75 930.565,2446.75L986.38,2446.75C999.933,2446.75 1010.99,2435.7 1010.99,2422.14L1010.99,2367.93C1010.99,2354.38 999.933,2343.33 986.38,2343.33L930.565,2343.33ZM930.565,2423.39C929.852,2423.39 929.317,2422.86 929.317,2422.14L929.317,2367.93C929.317,2367.22 929.852,2366.69 930.565,2366.69L986.38,2366.69C987.093,2366.69 987.628,2367.22 987.628,2367.93L987.628,2422.14C987.628,2422.86 987.093,2423.39 986.38,2423.39L930.565,2423.39Z" style="fill:rgb(18,178,205);fill-rule:nonzero;"/>
                    </g>
                    <g transform="matrix(2.36673,0,0,2.36673,-442.728,-4339.28)">
                        <path d="M1116.02,2343.33L1116.02,2383.27L1054.86,2383.27L1054.86,2343.33L1031.5,2343.33L1031.5,2446.75L1054.86,2446.75L1054.86,2406.81L1116.02,2406.81L1116.02,2446.75L1139.56,2446.75L1139.56,2343.33L1116.02,2343.33Z" style="fill:rgb(18,178,205);fill-rule:nonzero;"/>
                    </g>
                    <g transform="matrix(2.36673,0,0,2.36673,-442.728,-4339.28)">
                        <path d="M1184.67,2343.33C1171.12,2343.33 1160.07,2354.38 1160.07,2367.93L1160.07,2422.14C1160.07,2435.7 1171.12,2446.75 1184.67,2446.75L1240.49,2446.75C1254.04,2446.75 1265.1,2435.7 1265.1,2422.14L1265.1,2367.93C1265.1,2354.38 1254.04,2343.33 1240.49,2343.33L1184.67,2343.33ZM1184.67,2423.39C1183.96,2423.39 1183.43,2422.86 1183.43,2422.14L1183.43,2367.93C1183.43,2367.22 1183.96,2366.69 1184.67,2366.69L1240.49,2366.69C1241.2,2366.69 1241.74,2367.22 1241.74,2367.93L1241.74,2422.14C1241.74,2422.86 1241.2,2423.39 1240.49,2423.39L1184.67,2423.39Z" style="fill:rgb(18,178,205);fill-rule:nonzero;"/>
                    </g>
                </g>
                <g transform="matrix(0.215383,0,0,0.215383,1046.53,399.83)">
                    <path d="M1682.52,3032.35L1191.49,3032.35L1022.7,3148.39L1022.7,3215.01L1514.22,3215.01L1682.52,3098.97L1682.52,3032.35Z" style="fill:rgb(18,178,205);"/>
                </g>
            </g>
        </g>
    </g>
</svg>
